<?xml version="1.0" encoding="UTF-8"?>
<svg width="90" height="90" viewBox="0 0 90 90" version="1.1" xmlns="http://www.w3.org/2000/svg" xmlns:xlink="http://www.w3.org/1999/xlink">
    <!-- Generator: Sketch 46.2 (44496) - http://www.bohemiancoding.com/sketch -->
    <title>circle-logo</title>
    <desc>Created with Sketch.</desc>
    <defs></defs>
    <g id="Page-1" stroke="none" stroke-width="1" fill="none" fill-rule="evenodd">
        <g id="circle-logo" fill-rule="nonzero">
            <path d="M27.9194366,38.6577465 C29.7625352,33.7994366 33.63,29.9315493 38.4883099,28.0884507 L38.4883099,23.5647887 C31.254507,25.7222535 25.5528169,31.4239437 23.3957746,38.6577465 L27.9194366,38.6577465" id="Fill-19" fill="#E3623A"></path>
            <path d="M16.2291549,38.6577465 C18.7056338,27.5970423 27.4280282,18.8750704 38.4883099,16.398169 L38.4883099,12.0173239 C25.0402817,14.616338 14.4473239,25.2092958 11.8483099,38.6577465 L16.2291549,38.6577465" id="Fill-20" fill="#E3623A"></path>
            <path d="M38.4883099,62.0801408 C33.63,60.2366197 29.7625352,56.3687324 27.9190141,51.5104225 L23.3957746,51.5104225 C25.5528169,58.7442254 31.254507,64.446338 38.4883099,66.6033803 L38.4883099,62.0801408" id="Fill-21" fill="#303337"></path>
            <path d="M51.3414085,23.5647887 L51.3414085,28.0880282 C58.1991549,30.69 63.0883099,37.3250704 63.0883099,45.0840845 C63.0883099,52.8430986 58.1991549,59.4785915 51.3414085,62.0801408 L51.3414085,66.6038028 C60.611831,63.8391549 67.3728169,55.2532394 67.3728169,45.0840845 C67.3728169,34.9149296 60.611831,26.3294366 51.3414085,23.5647887" id="Fill-22" fill="#303337"></path>
            <path d="M38.4883099,73.77 C27.4280282,71.2935211 18.7056338,62.5711268 16.2291549,51.5104225 L11.8483099,51.5104225 C14.4469014,64.9588732 25.0402817,75.551831 38.4883099,78.1508451 L38.4883099,73.77" id="Fill-23" fill="#303337"></path>
            <path d="M51.3414085,12.0173239 L51.3414085,16.398169 C64.4721127,19.338169 74.3171831,31.0795775 74.3171831,45.0840845 C74.3171831,59.0890141 64.4721127,70.83 51.3414085,73.7704225 L51.3414085,78.1508451 C66.8708451,75.15 78.6016901,61.4902817 78.6016901,45.0840845 C78.6016901,28.6783099 66.8708451,15.018169 51.3414085,12.0173239" id="Fill-24" fill="#303337"></path>
            <path d="M47.0569014,85.6588732 L47.0569014,56.106338 C52.2338028,55.1061972 56.1439437,50.5529577 56.1439437,45.0840845 C56.1439437,39.6152113 52.2338028,35.0619718 47.0569014,34.061831 L47.0569014,4.50971831 C68.4692958,5.62732394 85.5460563,23.3987324 85.5460563,45.0840845 C85.5460563,66.7698592 68.4692958,84.5412676 47.0569014,85.6588732 Z M4.34070423,47.2259155 L33.8928169,47.2259155 C34.7590141,51.7090141 38.2901408,55.2401408 42.7728169,56.106338 L42.7728169,85.6584507 C22.0702817,84.5780282 5.42112676,67.9288732 4.34070423,47.2259155 Z M42.7728169,4.50971831 L42.7728169,34.061831 C38.2901408,34.9280282 34.7590141,38.4591549 33.8928169,42.9422535 L4.34070423,42.9422535 C5.42112676,22.2392958 22.0702817,5.59056338 42.7728169,4.50971831 Z M44.9150704,0.169014085 C20.1092958,0.169014085 0,20.2783099 0,45.0840845 C0,69.8902817 20.1092958,89.9995775 44.9150704,89.9995775 C69.7212676,89.9995775 89.8301408,69.8902817 89.8301408,45.0840845 C89.8301408,20.2783099 69.7212676,0.169014085 44.9150704,0.169014085 L44.9150704,0.169014085 Z" id="Fill-25" fill="#303337"></path>
        </g>
    </g>
</svg>
