<?xml version="1.0" encoding="UTF-8"?>
<svg width="270" height="111" viewBox="0 0 270 111" version="1.1" xmlns="http://www.w3.org/2000/svg" xmlns:xlink="http://www.w3.org/1999/xlink">
    <!-- Generator: Sketch 46.2 (44496) - http://www.bohemiancoding.com/sketch -->
    <title>logo</title>
    <desc>Created with Sketch.</desc>
    <defs>
        <polygon id="path-1" points="26.8067698 0.274112676 26.8067698 31.6454225 0.381760155 31.6454225 0.381760155 0.274112676"></polygon>
        <polygon id="path-3" points="26.8067698 0.274112676 26.8067698 31.6454225 0.381760155 31.6454225 0.381760155 0.274112676"></polygon>
    </defs>
    <g id="Page-1" stroke="none" stroke-width="1" fill="none" fill-rule="evenodd">
        <g id="logo">
            <path d="M130.595397,47.3360282 L133.656267,47.3360282 L134.152921,46.8816056 L132.126093,36.8509577 L130.098743,46.8816056 L130.595397,47.3360282 Z M142.591335,59.2651408 L136.014197,59.2651408 L136.469594,58.0269437 L135.311257,53.238831 L134.690832,52.6197324 L129.519574,52.6197324 L128.899149,53.238831 L127.740812,58.0269437 L128.195687,59.2651408 L121.619072,59.2651408 L122.652592,57.1603099 L129.105957,29.7099577 L128.526789,27.893831 L135.683095,27.893831 L135.104449,29.7099577 L141.557292,57.1603099 L142.591335,59.2651408 L142.591335,59.2651408 Z" id="Fill-1" fill="#303337" fill-rule="nonzero"></path>
            <polyline id="Fill-2" fill="#303337" fill-rule="nonzero" points="144.244236 56.6647183 144.244236 30.4530845 146.891489 27.893831 157.357776 27.893831 159.963772 30.4530845 159.963772 35.7367887 160.625455 37.7181127 154.048317 37.7181127 154.751257 35.7367887 154.751257 33.6726056 154.172611 33.053507 150.076654 33.053507 149.456228 33.6726056 149.456228 53.362338 150.076654 53.9814366 154.172611 53.9814366 154.751257 53.362338 154.751257 51.3398451 154.048317 49.3585211 160.625455 49.3585211 159.963772 51.3398451 159.963772 56.6647183 157.357776 59.2651408 146.891489 59.2651408 144.244236 56.6647183"></polyline>
            <path d="M173.81942,33.1775352 L169.848279,33.1775352 L169.227853,33.7554648 L169.227853,53.4451972 L169.848279,54.0226056 L173.81942,54.0226056 L174.440368,53.4451972 L174.440368,33.7554648 L173.81942,33.1775352 Z M179.734874,30.4530845 L179.734874,56.6647183 L177.128878,59.2651408 L166.663114,59.2651408 L164.015861,56.6647183 L164.015861,30.4530845 L166.663114,27.893831 L177.128878,27.893831 L179.734874,30.4530845 L179.734874,30.4530845 Z" id="Fill-3" fill="#303337" fill-rule="nonzero"></path>
            <polyline id="Fill-4" fill="#303337" fill-rule="nonzero" points="199.67205 29.9168451 199.67205 56.6647183 197.024797 59.2651408 186.517253 59.2651408 183.953037 56.6647183 183.953037 29.9168451 183.290832 27.893831 189.785455 27.893831 189.12325 29.9168451 189.12325 53.4451972 189.743675 54.0226056 193.797853 54.0226056 194.418279 53.4451972 194.418279 29.9168451 193.756596 27.893831 200.333733 27.893831 199.67205 29.9168451"></polyline>
            <polyline id="Fill-5" fill="#303337" fill-rule="nonzero" points="220.394681 37.8004507 213.817021 37.8004507 214.437969 35.8191268 214.437969 33.7554648 213.817021 33.1775352 209.804623 33.1775352 209.184197 33.7554648 209.184197 40.3597042 209.804623 40.9788028 217.085222 40.9788028 219.691219 43.5797465 219.691219 56.6647183 217.085222 59.2651408 206.619458 59.2651408 203.889168 56.6647183 203.889168 51.3810141 203.31 49.3996901 209.84588 49.3996901 209.184197 51.3810141 209.184197 53.4451972 209.804623 54.0226056 213.817021 54.0226056 214.437969 53.4451972 214.437969 46.8404366 213.817021 46.221338 206.619458 46.221338 203.889168 43.5797465 203.889168 30.4530845 206.619458 27.893831 217.085222 27.893831 219.691219 30.4530845 219.691219 35.8191268 220.394681 37.8004507"></polyline>
            <polyline id="Fill-6" fill="#303337" fill-rule="nonzero" points="241.116789 33.7554648 238.883153 33.1775352 234.953269 33.1775352 234.374101 33.7554648 234.374101 57.2838169 235.035783 59.2651408 228.459168 59.2651408 229.120329 57.2838169 229.120329 33.7554648 228.499903 33.1775352 224.487505 33.1775352 222.336383 33.7554648 223.287911 27.893831 240.124004 27.893831 241.116789 33.7554648"></polyline>
            <g id="Group-10" transform="translate(242.843327, 27.619718)">
                <g id="Fill-7-Clipped">
                    <mask id="mask-2" fill="white">
                        <use xlink:href="#path-1"></use>
                    </mask>
                    <g id="path-1"></g>
                    <polyline id="Fill-7" fill="#303337" fill-rule="nonzero" mask="url(#mask-2)" points="6.87586074 31.6454225 0.381760155 31.6454225 1.0429207 29.6640986 1.0429207 2.29712676 0.381760155 0.274112676 6.87586074 0.274112676 6.21417795 2.29712676 6.21417795 29.6640986 6.87586074 31.6454225"></polyline>
                </g>
                <g id="Fill-9-Clipped">
                    <mask id="mask-4" fill="white">
                        <use xlink:href="#path-3"></use>
                    </mask>
                    <g id="path-1"></g>
                    <polyline id="Fill-9" fill="#303337" fill-rule="nonzero" mask="url(#mask-4)" points="10.4323404 29.045 10.4323404 2.8333662 13.0795938 0.274112676 23.5453578 0.274112676 26.1518762 2.8333662 26.1518762 8.11707042 26.8130368 10.0983944 20.2364217 10.0983944 20.9393617 8.11707042 20.9393617 6.05288732 20.3601934 5.43378873 16.2647582 5.43378873 15.6443327 6.05288732 15.6443327 25.7426197 16.2647582 26.3617183 20.3601934 26.3617183 20.9393617 25.7426197 20.9393617 23.7201268 20.2364217 21.7388028 26.8130368 21.7388028 26.1518762 23.7201268 26.1518762 29.045 23.5453578 31.6454225 13.0795938 31.6454225 10.4323404 29.045"></polyline>
                </g>
            </g>
            <path d="M122.766441,79.3644789 C123.796306,80.5093944 125.482108,81.5844789 127.683366,81.5844789 C130.470058,81.5844789 131.359961,80.0888451 131.359961,78.8975493 C131.359961,77.0282676 129.463172,76.5139155 127.402921,75.9531831 C124.897195,75.299169 122.110503,74.5982535 122.110503,71.5371549 C122.110503,68.9669577 124.405242,67.2149296 127.472901,67.2149296 C129.861122,67.2149296 131.710909,68.0091268 133.022263,69.387507 L131.851393,70.8127887 C130.680522,69.5276901 129.041721,68.943507 127.332418,68.943507 C125.45913,68.943507 124.124275,69.9482394 124.124275,71.4204225 C124.124275,72.9858873 125.92706,73.453338 127.917853,73.9906197 C130.470058,74.6680845 133.373733,75.4628028 133.373733,78.7339155 C133.373733,81.0002958 131.827892,83.3135775 127.613385,83.3135775 C124.897195,83.3135775 122.906925,82.2853944 121.619072,80.836662 L122.766441,79.3644789" id="Fill-11" fill="#E3623A" fill-rule="nonzero"></path>
            <polyline id="Fill-12" fill="#E3623A" fill-rule="nonzero" points="136.275841 67.4483944 146.508685 67.4483944 146.508685 69.1769718 138.219632 69.1769718 138.219632 74.2006338 146.3447 74.2006338 146.3447 75.9297324 138.219632 75.9297324 138.219632 81.3041127 146.508685 81.3041127 146.508685 83.0332113 136.275841 83.0332113 136.275841 67.4483944"></polyline>
            <polyline id="Fill-13" fill="#E3623A" fill-rule="nonzero" points="149.597756 67.4483944 151.541547 67.4483944 151.541547 81.3041127 158.800213 81.3041127 158.800213 83.0332113 149.597756 83.0332113 149.597756 67.4483944"></polyline>
            <polyline id="Fill-14" fill="#E3623A" fill-rule="nonzero" points="161.538859 67.4483944 171.771702 67.4483944 171.771702 69.1769718 163.482128 69.1769718 163.482128 74.2006338 171.607718 74.2006338 171.607718 75.9297324 163.482128 75.9297324 163.482128 81.3041127 171.771702 81.3041127 171.771702 83.0332113 161.538859 83.0332113 161.538859 67.4483944"></polyline>
            <path d="M174.228337,75.2522676 C174.228337,70.4625915 177.764449,67.1914789 182.189942,67.1914789 C185.023636,67.1914789 186.943404,68.5229577 188.184255,70.275507 L186.545455,71.1864366 C185.655551,69.8784085 184.039729,68.9200563 182.189942,68.9200563 C178.841838,68.9200563 176.242108,71.5371549 176.242108,75.2522676 C176.242108,78.9439296 178.841838,81.5844789 182.189942,81.5844789 C184.039729,81.5844789 185.655551,80.6500986 186.545455,79.3180986 L188.207756,80.2295493 C186.896925,82.0050282 185.023636,83.3135775 182.189942,83.3135775 C177.764449,83.3135775 174.228337,80.0424648 174.228337,75.2522676" id="Fill-15" fill="#E3623A" fill-rule="nonzero"></path>
            <polyline id="Fill-16" fill="#E3623A" fill-rule="nonzero" points="194.551973 69.1769718 189.611547 69.1769718 189.611547 67.4483944 201.459691 67.4483944 201.459691 69.1769718 196.495764 69.1769718 196.495764 83.0332113 194.551973 83.0332113 194.551973 69.1769718"></polyline>
            <path d="M210.520619,68.9200563 C207.008008,68.9200563 204.783772,71.607507 204.783772,75.2522676 C204.783772,78.8740986 207.008008,81.5844789 210.520619,81.5844789 C214.009729,81.5844789 216.257466,78.8740986 216.257466,75.2522676 C216.257466,71.607507 214.009729,68.9200563 210.520619,68.9200563 Z M210.520619,67.1914789 C215.133598,67.1914789 218.271238,70.6496761 218.271238,75.2522676 C218.271238,79.8553803 215.133598,83.3135775 210.520619,83.3135775 C205.884139,83.3135775 202.77,79.8553803 202.77,75.2522676 C202.77,70.6496761 205.884139,67.1914789 210.520619,67.1914789 L210.520619,67.1914789 Z" id="Fill-17" fill="#E3623A" fill-rule="nonzero"></path>
            <path d="M227.355145,69.1769718 L223.257099,69.1769718 L223.257099,75.1355352 L227.355145,75.1355352 C229.204932,75.1355352 230.469284,73.897338 230.469284,72.1447887 C230.469284,70.3922394 229.204932,69.1769718 227.355145,69.1769718 Z M226.37176,76.8411831 L223.257099,76.8411831 L223.257099,83.0332113 L221.31383,83.0332113 L221.31383,67.4483944 L227.58911,67.4483944 C230.445783,67.4483944 232.483056,69.2707746 232.483056,72.1447887 C232.483056,74.9489718 230.562766,76.4904648 228.432012,76.6775493 L232.647041,83.0332113 L230.352302,83.0332113 L226.37176,76.8411831 L226.37176,76.8411831 Z" id="Fill-18" fill="#E3623A" fill-rule="nonzero"></path>
            <path d="M34.5077756,47.6778873 C36.7858027,41.6859718 41.5658994,36.9155775 47.5706576,34.6424225 L47.5706576,29.0632394 C38.6298453,31.7241127 31.5826886,38.7561972 28.9166344,47.6778873 L34.5077756,47.6778873" id="Fill-19" fill="#E3623A" fill-rule="nonzero"></path>
            <path d="M20.0588588,47.6778873 C23.1197292,34.0363521 33.9004062,23.2792535 47.5706576,20.2244085 L47.5706576,14.8213662 C30.949207,18.0268169 17.8565571,31.0914648 14.644236,47.6778873 L20.0588588,47.6778873" id="Fill-20" fill="#E3623A" fill-rule="nonzero"></path>
            <path d="M47.5706576,76.565507 C41.5658994,74.291831 36.7858027,69.5214366 34.5072534,63.5295211 L28.9166344,63.5295211 C31.5826886,72.4512113 38.6298453,79.4838169 47.5706576,82.144169 L47.5706576,76.565507" id="Fill-21" fill="#303337" fill-rule="nonzero"></path>
            <path d="M63.4567892,29.0632394 L63.4567892,34.6419014 C71.9328046,37.851 77.9756867,46.0342535 77.9756867,55.6037042 C77.9756867,65.1731549 71.9328046,73.3569296 63.4567892,76.565507 L63.4567892,82.1446901 C74.9148162,78.7349577 83.2712379,68.145662 83.2712379,55.6037042 C83.2712379,43.0617465 74.9148162,32.4729718 63.4567892,29.0632394" id="Fill-22" fill="#303337" fill-rule="nonzero"></path>
            <path d="M47.5706576,90.983 C33.9004062,87.9286761 23.1197292,77.1710563 20.0588588,63.5295211 L14.644236,63.5295211 C17.8560348,80.1159437 30.949207,93.1805915 47.5706576,96.3860423 L47.5706576,90.983" id="Fill-23" fill="#303337" fill-rule="nonzero"></path>
            <path d="M63.4567892,14.8213662 L63.4567892,20.2244085 C79.6860348,23.8504085 91.8543133,38.3314789 91.8543133,55.6037042 C91.8543133,72.8764507 79.6860348,87.357 63.4567892,90.9835211 L63.4567892,96.3860423 C82.6508124,92.685 97.1498646,75.8380141 97.1498646,55.6037042 C97.1498646,35.3699155 82.6508124,18.5224085 63.4567892,14.8213662" id="Fill-24" fill="#303337" fill-rule="nonzero"></path>
            <path d="M58.1612379,105.645944 L58.1612379,69.1978169 C64.5597679,67.9643099 69.3926112,62.3486479 69.3926112,55.6037042 C69.3926112,48.8587606 64.5597679,43.2430986 58.1612379,42.0095915 L58.1612379,5.56198592 C84.6264603,6.9403662 105.73294,28.8584366 105.73294,55.6037042 C105.73294,82.349493 84.6264603,104.267563 58.1612379,105.645944 Z M5.36500967,58.2452958 L41.890735,58.2452958 C42.9613346,63.7744507 47.3257253,68.129507 52.8662089,69.1978169 L52.8662089,105.645423 C27.2783559,104.312901 6.70038685,83.7789437 5.36500967,58.2452958 Z M52.8662089,5.56198592 L52.8662089,42.0095915 C47.3257253,43.0779014 42.9613346,47.4329577 41.890735,52.9621127 L5.36500967,52.9621127 C6.70038685,27.4284648 27.2783559,6.89502817 52.8662089,5.56198592 Z M55.5139845,0.208450704 C24.8546228,0.208450704 0,25.0099155 0,55.6037042 C0,86.1980141 24.8546228,110.999479 55.5139845,110.999479 C86.1738685,110.999479 111.027969,86.1980141 111.027969,55.6037042 C111.027969,25.0099155 86.1738685,0.208450704 55.5139845,0.208450704 L55.5139845,0.208450704 Z" id="Fill-25" fill="#303337" fill-rule="nonzero"></path>
        </g>
    </g>
</svg>
