<?xml version="1.0" encoding="UTF-8"?>
<svg width="202px" height="45px" viewBox="0 0 202 45" version="1.1" xmlns="http://www.w3.org/2000/svg" xmlns:xlink="http://www.w3.org/1999/xlink">
    <!-- Generator: Sketch 47.1 (45422) - http://www.bohemiancoding.com/sketch -->
    <title>norseal-logo-white-large</title>
    <desc>Created with Sketch.</desc>
    <defs>
        <polygon id="path-1" points="20.4021809 0.0298954248 20.4021809 35.1411075 12.3993685 35.1411075 7.65033565 19.1788794 7.65033565 35.1411075 0.0163942652 35.1411075 0.0163942652 0.0298954248 7.65033565 0.0298954248 12.7682395 15.8392711 12.7682395 0.0298954248"></polygon>
        <path d="M12.0261579,9.77435736 C12.0261579,8.14071705 11.9364716,7.09630592 11.7556525,6.64064178 C11.5743512,6.18545983 11.202105,5.95786885 10.6389138,5.95786885 C10.1615513,5.95786885 9.79605565,6.14206325 9.54387328,6.51045203 C9.29072654,6.879323 9.16391207,7.96713071 9.16391207,9.77435736 L9.16391207,26.1700691 C9.16391207,28.208262 9.24732995,29.4662808 9.41368353,29.9436432 C9.57955492,30.4210057 9.96674889,30.6592047 10.5738189,30.6592047 C11.1948722,30.6592047 11.5926742,30.3848418 11.7662606,29.8351518 C11.9403291,29.2854617 12.0261579,27.9768136 12.0261579,25.9096896 L12.0261579,9.77435736 Z M21.1567993,21.3115804 C21.1567993,24.8402049 21.0738636,27.3379194 20.9070278,28.804724 C20.7416386,30.2724929 20.2208796,31.612483 19.3457151,32.8280696 C18.4710329,34.0422095 17.2891992,34.9747539 15.8002142,35.6257027 C14.3112292,36.2756871 12.5763302,36.6006793 10.5959994,36.6006793 C8.71596289,36.6006793 7.02735357,36.2944923 5.53161796,35.6792251 C4.03491798,35.0649224 2.83138604,34.1434682 1.92102214,32.9143805 C1.00969386,31.685775 0.467236559,30.3481958 0.294132405,28.9026074 C0.120546068,27.457019 0.033752899,24.9265159 0.033752899,21.3115804 L0.033752899,15.3045288 C0.033752899,11.7773508 0.117170778,9.2796363 0.283042167,7.81186738 C0.449395741,6.34458064 0.969672569,5.003144 1.84435484,3.789004 C2.71951929,2.57438182 3.90183512,1.64183744 5.39082015,0.991370862 C6.87980518,0.34090428 8.614222,0.0154298967 10.5959994,0.0154298967 C12.4750715,0.0154298967 14.1631986,0.322581277 15.6594164,0.937366223 C17.1556342,1.55166898 18.3596483,2.47360531 19.2704944,3.70221083 C20.1813405,4.93129854 20.7237978,6.26839553 20.8964198,7.71398397 C21.0700061,9.1600546 21.1567993,11.6905577 21.1567993,15.3045288 L21.1567993,21.3115804 Z" id="path-3"></path>
        <path d="M9.19573624,6.03694708 L9.19573624,13.8439926 C10.2218244,13.8439926 10.9417255,13.7027126 11.3535108,13.421117 C11.7652962,13.1395214 11.9716711,12.2253 11.9716711,10.6779707 L11.9716711,8.74778705 C11.9716711,7.63442357 11.7730112,6.90391439 11.3756913,6.5572239 C10.9774071,6.21005123 10.2512376,6.03694708 9.19573624,6.03694708 Z M0.0660592452,0.0298954248 L6.52829285,0.0298954248 C10.8366093,0.0298954248 13.753342,0.195766814 15.2794552,0.528473961 C16.8041219,0.861181108 18.0476751,1.71030761 19.0096327,3.07681783 C19.9701438,4.44284587 20.4513637,6.62231878 20.4513637,9.61523655 C20.4513637,12.3472926 20.1114238,14.1844147 19.4320261,15.1232275 C18.7526285,16.0630046 17.4150493,16.6271602 15.4197708,16.8152121 C17.2274796,17.2636435 18.4416196,17.8634807 19.0631552,18.6147238 C19.6846907,19.3669313 20.0718847,20.0579013 20.2232905,20.6861874 C20.3756607,21.3149557 20.4513637,23.0464794 20.4513637,25.8802764 L20.4513637,35.1411075 L11.9716711,35.1411075 L11.9716711,23.4736947 C11.9716711,21.5936582 11.8236405,20.4291832 11.5270972,19.981234 C11.2305539,19.533767 10.453755,19.3090691 9.19573624,19.3090691 L9.19573624,35.1411075 L0.0660592452,35.1411075 L0.0660592452,0.0298954248 Z" id="path-5"></path>
        <path d="M20.1606066,11.3790666 L11.680914,11.3790666 L11.680914,8.7767181 C11.680914,7.56257811 11.5729047,6.78915454 11.3559218,6.45644739 C11.139421,6.12422243 10.7777828,5.95786885 10.2710072,5.95786885 C9.72179928,5.95786885 9.30663862,6.18160236 9.02456082,6.63051591 C8.74248302,7.07942947 8.60168521,7.75882711 8.60168521,8.67063756 C8.60168521,9.84234534 8.75984165,10.7252247 9.07663672,11.3183114 C9.37993063,11.9113981 10.2396652,12.6274417 11.6568048,13.4649958 C15.721136,15.8773637 18.2810523,17.8562479 19.3365536,19.4030951 C20.392055,20.9504244 20.920529,23.4447636 20.920529,26.8856306 C20.920529,29.3867204 20.6273609,31.2301109 20.041507,32.415802 C19.4561353,33.6010109 18.324931,34.5952749 16.647412,35.3971473 C14.9703751,36.199502 13.018011,36.6006793 10.7917662,36.6006793 C8.34853847,36.6006793 6.26260931,36.1382646 4.53542525,35.212953 C2.80727683,34.2876413 1.67607253,33.1096652 1.14133017,31.6785422 C0.606105629,30.2469371 0.338975543,28.215977 0.338975543,25.5846974 L0.338975543,23.2856428 L8.81818595,23.2856428 L8.81818595,27.5582777 C8.81818595,28.8736763 8.93824983,29.7194276 9.17644886,30.0955313 C9.41464789,30.4711528 9.8375235,30.6592047 10.4450757,30.6592047 C11.0521457,30.6592047 11.5039523,30.4210057 11.8004957,29.9436432 C12.0960746,29.4662808 12.2450696,28.7579521 12.2450696,27.818175 C12.2450696,25.7505688 11.9629918,24.3994885 11.3993184,23.7625231 C10.8206972,23.126522 9.39632489,22.0637879 7.12668353,20.5748029 C4.85704216,19.0713523 3.35359161,17.9801693 2.61633186,17.2998073 C1.87858992,16.6208918 1.26766245,15.6806325 0.783549441,14.480958 C0.298472064,13.2808014 0.056897744,11.7479376 0.056897744,9.88284882 C0.056897744,7.19370714 0.400212945,5.22784187 1.08684335,3.98380645 C1.77347375,2.74121758 2.88346194,1.76865191 4.41584356,1.06707379 C5.94822517,0.365977862 7.7988484,0.0154298967 9.96819544,0.0154298967 C12.3390955,0.0154298967 14.3599298,0.398766392 16.0292517,1.16447501 C17.699538,1.93163019 18.8051866,2.89648092 19.3476439,4.05999156 C19.889619,5.22398439 20.1606066,7.20142209 20.1606066,9.99134028 L20.1606066,11.3790666 Z" id="path-7"></path>
        <polygon id="path-9" points="0.0101258697 0.0298954248 15.2341299 0.0298954248 15.2341299 7.05580244 9.13980286 7.05580244 9.13980286 13.7138029 14.8440428 13.7138029 14.8440428 20.3935016 9.13980286 20.3935016 9.13980286 28.1142361 15.8411999 28.1142361 15.8411999 35.1411075 0.0101258697 35.1411075"></polygon>
        <path d="M13.1067329,22.605763 C12.643836,18.6291893 12.1799747,13.7133207 11.7156312,7.85863925 C10.7850156,14.5817345 10.2006083,19.4980854 9.96289141,22.605763 L13.1067329,22.605763 Z M17.945452,0.0298954248 L23.1655789,35.1411075 L13.8348311,35.1411075 L13.3458963,28.8302798 L10.0786156,28.8302798 L9.5308543,35.1411075 L0.090650643,35.1411075 L4.7485507,0.0298954248 L17.945452,0.0298954248 Z" id="path-11"></path>
        <polygon id="path-13" points="9.1692161 0.0298954248 9.1692161 28.1142361 14.7196392 28.1142361 14.7196392 35.1411075 0.0380925574 35.1411075 0.0380925574 0.0298954248"></polygon>
        <path d="M1.00854868,44.9636833 L0.0289310563,44.9636833 L0.0289310563,44.8756714 C0.103380886,44.6404628 0.157293452,44.403136 0.227590976,44.1772407 C0.457110689,43.3464372 0.532331435,43.0219272 0.67505798,42.5913367 C4.17089395,31.9157769 7.66672991,22.2330346 11.2064446,11.6929686 C12.1172907,8.9729671 13.6655844,2.483249 17.5707948,3.01365169 C19.7068712,3.30296226 20.6090379,7.15561458 21.0430038,9.49372612 C21.6211427,12.6139405 21.6269289,15.4250748 21.9687976,18.5206979 C22.2822174,21.336654 22.6626607,24.0904084 23.2417641,27.2000147 C23.6173856,29.215545 24.2345815,34.0856061 26.3658359,34.0234044 C28.4686416,33.9645779 29.1383955,28.5694181 29.49039,26.7366357 C31.225289,17.6431225 32.6342315,8.32442926 34.6757997,0.439752055 C34.6835146,0.410820999 34.7625928,0.119581699 34.7698256,0.0901684587 L42.5831395,0.0901684587 C42.5074366,0.241092136 42.4023204,0.474469323 42.2890071,0.685666034 C42.0782926,1.13023993 41.9095281,1.45474995 41.7581223,1.74020303 C39.0815174,6.7505798 36.9738899,11.9147733 35.5085319,17.9420767 C33.7774904,25.0639384 33.2133348,32.9616346 29.8380449,37.9623677 C28.7434866,39.5825068 27.2969338,40.7397491 25.0933517,40.8554733 C24.6159892,40.865117 24.0499049,40.828471 23.7871145,40.6881554 C23.2446572,40.4084885 22.200246,39.5825068 21.7368669,38.656713 C21.3019367,37.8702705 21.1269038,37.3634948 20.9267974,36.4531309 C19.688066,31.1732131 18.6513698,25.6902958 17.8027255,20.0251128 C17.5471678,19.7358022 17.5471678,19.2005777 17.3393464,18.8678705 C17.0886106,18.4628357 16.8185874,18.0722665 16.4135526,17.8268347 C14.0460278,16.3556905 12.87432,21.4138035 12.4789289,23.2653911 C10.888203,30.6910289 9.3408737,38.2998967 7.86587202,44.9636833 L6.8862544,44.9636833 L1.00854868,44.9636833 Z" id="path-15"></path>
    </defs>
    <g id="Page-1" stroke="none" stroke-width="1" fill="none" fill-rule="evenodd">
        <g id="norseal-logo-white-large">
            <g id="Group-3" transform="translate(49.785526, 4.942389)">
                <mask id="mask-2" fill="white">
                    <use xlink:href="#path-1"></use>
                </mask>
                <g id="Clip-2"></g>
                <polygon id="Fill-1" fill="#00A0B0" mask="url(#mask-2)" points="-2.99725743 -2.98375627 23.4158326 -2.98375627 23.4158326 38.1547592 -2.99725743 38.1547592"></polygon>
            </g>
            <g id="Group-6" transform="translate(73.292009, 4.219112)">
                <mask id="mask-4" fill="white">
                    <use xlink:href="#path-3"></use>
                </mask>
                <g id="Clip-5"></g>
                <polygon id="Fill-4" fill="#00A0B0" mask="url(#mask-4)" points="-2.9798988 -2.9982218 24.170451 -2.9982218 24.170451 39.614331 -2.9798988 39.614331"></polygon>
            </g>
            <g id="Group-9" transform="translate(97.521769, 4.942389)">
                <mask id="mask-6" fill="white">
                    <use xlink:href="#path-5"></use>
                </mask>
                <g id="Clip-8"></g>
                <polygon id="Fill-7" fill="#00A0B0" mask="url(#mask-6)" points="-2.94759245 -2.98375627 23.4650154 -2.98375627 23.4650154 38.1547592 -2.94759245 38.1547592"></polygon>
            </g>
            <g id="Group-12" transform="translate(120.425522, 4.219112)">
                <mask id="mask-8" fill="white">
                    <use xlink:href="#path-7"></use>
                </mask>
                <g id="Clip-11"></g>
                <polygon id="Fill-10" fill="#00A0B0" mask="url(#mask-8)" points="-2.95675395 -2.9982218 23.9341807 -2.9982218 23.9341807 39.614331 -2.95675395 39.614331"></polygon>
            </g>
            <g id="Group-15" transform="translate(143.932005, 4.942389)">
                <mask id="mask-10" fill="white">
                    <use xlink:href="#path-9"></use>
                </mask>
                <g id="Clip-14"></g>
                <polygon id="Fill-13" fill="#00A0B0" mask="url(#mask-10)" points="-3.00352583 -2.98375627 18.8548516 -2.98375627 18.8548516 38.1547592 -3.00352583 38.1547592"></polygon>
            </g>
            <g id="Group-18" transform="translate(161.893369, 4.942389)">
                <mask id="mask-12" fill="white">
                    <use xlink:href="#path-11"></use>
                </mask>
                <g id="Clip-17"></g>
                <polygon id="Fill-16" fill="#00A0B0" mask="url(#mask-12)" points="-2.92300105 -2.98375627 26.1792306 -2.98375627 26.1792306 38.1547592 -2.92300105 38.1547592"></polygon>
            </g>
            <g id="Group-21" transform="translate(186.725859, 4.942389)">
                <mask id="mask-14" fill="white">
                    <use xlink:href="#path-13"></use>
                </mask>
                <g id="Clip-20"></g>
                <polygon id="Fill-19" fill="#00A0B0" mask="url(#mask-14)" points="-2.97555914 -2.98375627 17.7332909 -2.98375627 17.7332909 38.1547592 -2.97555914 38.1547592"></polygon>
            </g>
            <g id="Group-24">
                <mask id="mask-16" fill="white">
                    <use xlink:href="#path-15"></use>
                </mask>
                <g id="Clip-23"></g>
                <polygon id="Fill-22" fill="#00A0B0" mask="url(#mask-16)" points="-3.01365169 -2.92348324 45.5967912 -2.92348324 45.5967912 47.977335 -3.01365169 47.977335"></polygon>
            </g>
        </g>
    </g>
</svg>